<svg width="160" height="160" viewBox="0 0 160 160" fill="none" xmlns="http://www.w3.org/2000/svg">
<g clip-path="url(#clip0_462_200)">
<path d="M160 0H0V160H160V0Z" fill="white"/>
<path fill-rule="evenodd" clip-rule="evenodd" d="M34.6871 113.496V105.174C34.6871 104.08 35.372 103.202 36.5062 103.202H36.8201C37.9538 103.202 38.6356 104.081 38.6356 105.174V122.695C38.6356 126.968 36.521 130.368 32.836 132.534C31.1479 133.532 29.221 134.056 27.259 134.052H26.4758C22.1946 134.052 18.7934 131.939 16.6202 128.263C15.6186 126.579 15.0932 124.654 15.0997 122.695V121.915C15.0997 117.64 17.2153 114.243 20.8973 112.073C22.585 111.072 24.513 110.548 26.4758 110.554H27.259C30.1562 110.554 32.6143 111.675 34.6871 113.496ZM19.0476 122.304C19.0476 125.391 20.5462 127.711 23.2555 129.191C24.351 129.789 25.5403 130.111 26.7902 130.111C29.825 130.111 32.0762 128.682 33.6288 126.114C34.3508 124.92 34.6871 123.613 34.6871 122.224C34.6871 119.549 33.4184 117.461 31.2584 115.91C29.9489 114.97 28.4747 114.498 26.8671 114.498C23.5592 114.498 21.1786 116.167 19.7498 119.13C19.2678 120.132 19.0476 121.196 19.0476 122.304ZM52.3332 110.554H52.8805C57.4552 110.554 60.9344 112.77 63.1392 116.756C64.0207 118.35 64.4925 120.091 64.4925 121.915V122.695C64.4925 126.968 62.382 130.372 58.6913 132.534C56.9828 133.535 55.0955 134.052 53.1154 134.052H52.3332C48.052 134.052 44.6498 131.939 42.4776 128.263C41.4756 126.579 40.9496 124.655 40.9556 122.695V121.915C40.9556 117.64 43.0799 114.253 46.7527 112.074C48.4602 111.061 50.3491 110.554 52.3332 110.554ZM44.904 122.304C44.904 125.3 46.3766 127.504 48.9116 129.054C50.1019 129.781 51.413 130.111 52.8035 130.111C55.7691 130.111 57.9612 128.61 59.4868 126.111C60.2144 124.92 60.5435 123.611 60.5435 122.224C60.5435 119.438 59.1994 117.31 56.9013 115.768C55.6422 114.922 54.2405 114.498 52.7241 114.498C49.4161 114.498 47.0355 116.167 45.6072 119.13C45.1242 120.132 44.904 121.196 44.904 122.304ZM80.9065 114.813C80.3104 114.535 79.1945 114.442 78.5504 114.418C75.2516 114.293 72.8649 116.148 71.4647 119.053C70.9811 120.055 70.7605 121.115 70.7605 122.224C70.7605 125.6 72.5362 127.964 75.5548 129.405C76.6574 129.931 78.0811 130.031 79.2862 130.031C80.346 130.031 81.8441 129.382 82.7847 128.936L82.9478 128.859H83.678L83.7585 128.875C84.6563 129.062 85.334 129.63 85.334 130.595V130.985C85.334 133.385 80.9407 133.934 79.2643 134.051C73.3484 134.459 68.9241 131.216 67.2375 125.583C66.9445 124.605 66.8125 123.634 66.8125 122.614V121.835C66.8125 117.561 68.9373 114.175 72.6096 111.997C74.3171 110.985 76.2055 110.477 78.1891 110.477H78.9718C81.0762 110.477 83.0145 111.073 84.7521 112.258L84.8948 112.357L84.985 112.505C85.1725 112.815 85.334 113.174 85.334 113.544V113.934C85.334 114.94 84.5799 115.481 83.6698 115.656L83.5944 115.669H83.361C82.772 115.669 81.4324 115.061 80.9065 114.813ZM93.7135 117.482C95.2472 115.949 96.786 114.419 98.3427 112.911C98.7763 112.491 100.419 110.711 101.065 110.711H101.772L101.853 110.727C102.754 110.914 103.428 111.483 103.428 112.45V112.839C103.428 113.498 102.655 114.264 102.229 114.716C101.322 115.675 100.367 116.604 99.4382 117.544L94.6679 122.378C96.7218 124.433 98.7738 126.489 100.811 128.56C101.376 129.132 101.937 129.707 102.493 130.287C102.689 130.493 102.979 130.75 103.143 131.035C103.32 131.303 103.428 131.604 103.428 131.926V132.333L103.406 132.427C103.184 133.327 102.612 134.052 101.614 134.052H101.3C100.646 134.052 99.9085 133.314 99.4612 132.893C98.5389 132.025 97.6487 131.112 96.7448 130.226L93.7135 127.255V132.003C93.7135 133.097 93.0276 133.976 91.8949 133.976H91.5841C90.4498 133.976 89.765 133.097 89.765 132.003V105.25C89.765 104.157 90.4503 103.282 91.5841 103.282H91.8949C93.0276 103.282 93.7135 104.157 93.7135 105.25V117.482ZM142.924 110.711H143.316C144.5 110.711 145.291 111.507 145.291 112.683C145.291 114.314 143.728 114.732 142.376 114.732C140.603 114.732 138.91 115.804 137.687 117.006C136.163 118.506 135.496 120.427 135.496 122.539V132.08C135.496 133.174 134.812 134.052 133.677 134.052H133.365C132.231 134.052 131.547 133.174 131.547 132.08V121.991C131.547 118.116 133.436 114.954 136.586 112.735C138.467 111.41 140.621 110.711 142.924 110.711ZM114.861 129.62C116.298 130.121 117.936 130.049 119.41 129.793C120.165 129.473 122.093 128.633 122.802 128.756L122.913 128.775L123.014 128.825C123.448 129.035 123.861 129.331 124.082 129.771C124.599 130.802 124.35 131.839 123.335 132.424L122.998 132.619C119.252 134.777 115.269 134.478 111.535 132.462C109.75 131.499 108.385 130.069 107.377 128.326L107.142 127.919C104.738 123.762 105.062 119.39 107.774 115.437C108.71 114.071 109.933 113.015 111.364 112.19L111.905 111.878C115.432 109.845 119.212 109.985 122.835 111.769C124.783 112.728 126.361 114.158 127.448 116.038L127.644 116.377C128.433 117.743 127.41 118.933 126.354 119.747C125.128 120.691 123.89 121.828 122.715 122.84C120.095 125.098 117.479 127.361 114.861 129.62ZM111.47 127.243C114.4 124.735 117.331 122.225 120.253 119.706C121.252 118.847 122.347 117.955 123.337 117.051C122.543 116.051 121.215 115.33 120.087 114.9C117.809 114.034 115.563 114.325 113.475 115.528C110.741 117.104 109.577 119.613 109.679 122.736C109.719 123.966 110.051 125.151 110.704 126.197C110.935 126.566 111.192 126.912 111.47 127.243ZM90.1619 48.2614H101.813V60.1511H107.704C110.425 60.1511 113.223 59.6673 115.799 58.796C117.065 58.3672 118.486 57.7711 119.735 57.0208C118.09 54.8774 117.25 52.1709 117.004 49.503C116.668 45.8739 117.401 41.1506 119.861 38.3103L121.086 36.8962L122.546 38.0676C126.22 41.0142 129.31 45.1322 129.855 49.8265C134.279 48.5275 139.474 48.8347 143.374 51.0814L144.974 52.003L144.132 53.6439C140.834 60.0692 133.938 62.06 127.197 61.7075C117.109 86.7884 95.1473 98.6622 68.519 98.6622C54.7612 98.6622 42.1398 93.5285 34.9521 81.3443L34.8344 81.146L33.7873 79.0188C31.3578 73.6556 30.5506 67.7803 31.0979 61.9095L31.2625 60.1511H41.2261V48.2614H52.8769V36.6307H76.18V25H90.1619V48.2614Z" fill="#364548"/>
<path fill-rule="evenodd" clip-rule="evenodd" d="M127.905 52.6405C128.686 46.5794 124.143 41.819 121.325 39.5586C118.077 43.3063 117.573 53.1283 122.667 57.2636C119.824 59.7844 113.833 62.0693 107.699 62.0693H33.0275C32.4314 68.4614 33.5554 74.348 36.123 79.3861L36.9724 80.9375C37.5103 81.8481 38.098 82.7284 38.7329 83.5744C41.8029 83.7712 44.6335 83.8388 47.223 83.7819C52.3118 83.67 56.4651 83.0698 59.6121 81.9813C59.8346 81.9122 60.0752 81.9322 60.2832 82.0371C60.4911 82.1419 60.6501 82.3234 60.7264 82.5432C60.8027 82.7629 60.7904 83.0037 60.6921 83.2146C60.5938 83.4254 60.4172 83.5898 60.1996 83.673C59.7807 83.8185 59.3446 83.9538 58.8941 84.0825H58.8926C56.4147 84.789 53.7574 85.2641 50.3292 85.4752C50.533 85.4787 50.1172 85.5057 50.1162 85.5057C49.9995 85.5133 49.8527 85.5301 49.7355 85.5362C48.3863 85.612 46.93 85.6278 45.4411 85.6278C43.8126 85.6278 42.209 85.5972 40.4159 85.5057L40.3701 85.5362C46.5916 92.5169 56.3199 96.7035 68.5144 96.7035C94.3218 96.7035 116.212 85.2834 125.906 59.6451C132.782 60.3495 139.392 58.5988 142.398 52.7402C137.609 49.9818 131.451 50.8612 127.905 52.6405Z" fill="#22A0C8"/>
<path fill-rule="evenodd" clip-rule="evenodd" d="M127.905 52.6405C128.686 46.5794 124.143 41.819 121.325 39.5586C118.077 43.3063 117.573 53.1283 122.667 57.2636C119.824 59.7844 113.833 62.0693 107.699 62.0693H37.4494C37.1447 71.8587 40.7838 79.2895 47.2225 83.7819H47.224C52.3128 83.67 56.4651 83.0698 59.6121 81.9813C59.8345 81.9122 60.0752 81.9322 60.2832 82.0371C60.4911 82.1419 60.6501 82.3234 60.7264 82.5432C60.8027 82.7629 60.7904 83.0037 60.6921 83.2146C60.5938 83.4254 60.4172 83.5898 60.1996 83.673C59.7807 83.8185 59.3446 83.9538 58.8941 84.0825H58.8926C56.4147 84.789 53.5291 85.3251 50.1009 85.5362L50.0168 85.4574C58.7999 89.9548 71.5349 89.9385 86.136 84.3399C102.508 78.0611 117.743 66.0998 128.372 52.4187C128.212 52.4909 128.056 52.5647 127.905 52.6405Z" fill="#37B1D9"/>
<path fill-rule="evenodd" clip-rule="evenodd" d="M33.1719 69.8633C33.6356 73.2875 34.6394 76.4935 36.1272 79.4136L36.9767 80.965C37.5144 81.8756 38.1021 82.7559 38.7371 83.6018C41.8077 83.7987 44.6382 83.8663 47.2282 83.8094C52.317 83.6975 56.4693 83.0973 59.6163 82.0088C59.8388 81.9397 60.0794 81.9597 60.2874 82.0646C60.4954 82.1694 60.6543 82.3509 60.7306 82.5707C60.8069 82.7904 60.7946 83.0312 60.6963 83.242C60.598 83.4529 60.4214 83.6173 60.2038 83.7005C59.785 83.846 59.3488 83.9813 58.8983 84.11H58.8968C56.4189 84.8165 53.5486 85.3221 50.1204 85.5337C50.0027 85.5408 49.7973 85.5423 49.6786 85.5489C48.3304 85.6242 46.8889 85.6705 45.3995 85.6705C43.7715 85.6705 42.1063 85.6395 40.3142 85.5484C46.5357 92.5291 56.3241 96.731 68.5186 96.731C90.6125 96.731 109.835 88.3597 120.991 69.8633H33.1719Z" fill="#1B81A5"/>
<path fill-rule="evenodd" clip-rule="evenodd" d="M38.1133 69.8633C39.434 75.8755 42.608 80.5952 47.2158 83.8094C52.3047 83.6975 56.4569 83.0973 59.6039 82.0088C59.8264 81.9397 60.067 81.9597 60.275 82.0646C60.483 82.1694 60.6419 82.3509 60.7182 82.5707C60.7945 82.7904 60.7822 83.0312 60.6839 83.242C60.5856 83.4529 60.409 83.6173 60.1914 83.7005C59.7726 83.846 59.3364 83.9813 58.886 84.11H58.8844C56.4065 84.8165 53.4756 85.3221 50.0469 85.5337C58.8294 90.0301 71.5278 89.9655 86.1278 84.3673C94.9603 80.9798 103.461 75.937 111.087 69.8633H38.1133Z" fill="#1D91B4"/>
<path fill-rule="evenodd" clip-rule="evenodd" d="M43.1523 50.1854H53.2505V60.2658H43.1523V50.1854ZM43.9936 51.0257H44.7905V59.426H43.9936V51.0257ZM45.4917 51.0257H46.3207V59.426H45.4922L45.4917 51.0257ZM47.0213 51.0257H47.8504V59.426H47.0213V51.0257ZM48.552 51.0257H49.3805V59.426H48.552V51.0257ZM50.0822 51.0257H50.9107V59.426H50.0822V51.0257ZM51.6118 51.0257H52.4093V59.426H51.6118V51.0257ZM54.8036 38.5547H64.9023V48.6345H54.8031L54.8036 38.5547ZM55.6454 39.395H56.4418V47.7948H55.6454V39.395ZM57.1435 39.395H57.972V47.7948H57.144L57.1435 39.395ZM58.6731 39.395H59.5016V47.7948H58.6731V39.395ZM60.2033 39.395H61.0318V47.7948H60.2033V39.395ZM61.7335 39.395H62.5625V47.7948H61.7335V39.395ZM63.2631 39.395H64.0611V47.7948H63.2631V39.395Z" fill="#23A3C2"/>
<path fill-rule="evenodd" clip-rule="evenodd" d="M54.7974 50.1914H64.8961V60.2718H54.7969L54.7974 50.1914ZM55.6392 51.0317H56.4356V59.432H55.6392V51.0317ZM57.1372 51.0317H57.9657V59.432H57.1377L57.1372 51.0317ZM58.6669 51.0317H59.4954V59.432H58.6669V51.0317ZM60.197 51.0317H61.0256V59.432H60.197V51.0317ZM61.7272 51.0317H62.5562V59.432H61.7272V51.0317ZM63.2569 51.0317H64.0548V59.432H63.2569V51.0317Z" fill="#34BBDE"/>
<path fill-rule="evenodd" clip-rule="evenodd" d="M66.4688 50.1914H76.5668V60.2718H66.4688V50.1914ZM67.3099 51.0317H68.1063V59.432H67.3099V51.0317ZM68.808 51.0317H69.6365V59.432H68.808V51.0317ZM70.3382 51.0317H71.1667V59.432H70.3382V51.0317ZM71.8683 51.0317H72.6968V59.432H71.8683V51.0317ZM73.398 51.0317H74.2275V59.432H73.398V51.0317ZM74.9281 51.0317H75.7251V59.432H74.9281V51.0317Z" fill="#23A3C2"/>
<path fill-rule="evenodd" clip-rule="evenodd" d="M66.4688 38.5547H76.5668V48.6345H66.4688V38.5547ZM67.3099 39.395H68.1063V47.7948H67.3099V39.395ZM68.808 39.395H69.6365V47.7948H68.808V39.395ZM70.3382 39.395H71.1667V47.7948H70.3382V39.395ZM71.8683 39.395H72.6968V47.7948H71.8683V39.395ZM73.398 39.395H74.2275V47.7948H73.398V39.395ZM74.9281 39.395H75.7251V47.7948H74.9281V39.395ZM78.1199 50.1854H88.2181V60.2658H78.1199V50.1854ZM78.9617 51.0257H79.7581V59.426H78.9617V51.0257ZM80.4598 51.0257H81.2883V59.426H80.4598V51.0257ZM81.9894 51.0257H82.8179V59.426H81.9894V51.0257ZM83.5196 51.0257H84.3486V59.426H83.5196V51.0257ZM85.0498 51.0257H85.8788V59.426H85.0498V51.0257ZM86.5799 51.0257H87.3769V59.426H86.5799V51.0257Z" fill="#34BBDE"/>
<path fill-rule="evenodd" clip-rule="evenodd" d="M78.1152 38.5547H88.2134V48.6345H78.1152V38.5547ZM78.957 39.395H79.7534V47.7948H78.957V39.395ZM80.4551 39.395H81.2836V47.7948H80.4551V39.395ZM81.9847 39.395H82.8132V47.7948H81.9847V39.395ZM83.5149 39.395H84.3439V47.7948H83.5149V39.395ZM85.0451 39.395H85.8741V47.7948H85.0451V39.395ZM86.5752 39.395H87.3722V47.7948H86.5752V39.395Z" fill="#23A3C2"/>
<path fill-rule="evenodd" clip-rule="evenodd" d="M78.1152 26.9258H88.2134V37.0072H78.1152V26.9258ZM78.957 27.7656H79.7534V36.1664H78.957V27.7656ZM80.4551 27.7656H81.2836V36.1664H80.4551V27.7656ZM81.9847 27.7656H82.8132V36.1664H81.9847V27.7656ZM83.5149 27.7656H84.3439V36.1664H83.5149V27.7656ZM85.0451 27.7656H85.8741V36.1664H85.0451V27.7656ZM86.5752 27.7656H87.3722V36.1664H86.5752V27.7656Z" fill="#34BBDE"/>
<path fill-rule="evenodd" clip-rule="evenodd" d="M89.7617 50.1914H99.8599V60.2718H89.7617V50.1914ZM90.6025 51.0317H91.3999V59.432H90.603L90.6025 51.0317ZM92.1005 51.0317H92.9296V59.432H92.101L92.1005 51.0317ZM93.6312 51.0317H94.4602V59.432H93.6312V51.0317ZM95.1609 51.0317H95.9899V59.432H95.1609V51.0317ZM96.6915 51.0317H97.5201V59.432H96.6915V51.0317ZM98.2212 51.0317H99.0181V59.432H98.2212V51.0317Z" fill="#23A3C2"/>
<path fill-rule="evenodd" clip-rule="evenodd" d="M64.2725 76.6448C64.6415 76.6399 65.0078 76.7082 65.3502 76.8458C65.6925 76.9834 66.0041 77.1875 66.2668 77.4463C66.5294 77.705 66.738 78.0133 66.8803 78.3533C67.0226 78.6932 67.0959 79.0579 67.0958 79.4263C67.0958 79.7947 67.0224 80.1595 66.8799 80.4993C66.7375 80.8392 66.5288 81.1474 66.266 81.4061C66.0033 81.6648 65.6916 81.8688 65.3492 82.0062C65.0068 82.1437 64.6405 82.2119 64.2715 82.2068C63.5391 82.1968 62.8402 81.8993 62.3259 81.3788C61.8116 80.8582 61.5233 80.1564 61.5234 79.4253C61.5236 78.6942 61.8121 77.9925 62.3266 77.4721C62.8411 76.9518 63.5401 76.6545 64.2725 76.6448Z" fill="#D3ECEC"/>
<path fill-rule="evenodd" clip-rule="evenodd" d="M64.2752 77.388C64.5299 77.388 64.773 77.4358 64.9972 77.5228C64.8425 77.6125 64.7217 77.7505 64.6534 77.9156C64.5851 78.0806 64.5732 78.2635 64.6195 78.436C64.6657 78.6085 64.7676 78.761 64.9094 78.8699C65.0512 78.9788 65.2249 79.0381 65.4038 79.0386C65.7121 79.0386 65.9796 78.8682 66.1182 78.6159C66.2823 79.0105 66.3149 79.4473 66.2112 79.8619C66.1075 80.2764 65.873 80.6466 65.5423 80.9179C65.2116 81.1892 64.8023 81.3471 64.3748 81.3683C63.9473 81.3895 63.5244 81.2729 63.1684 81.0357C62.8124 80.7985 62.5422 80.4534 62.3978 80.0511C62.2534 79.6489 62.2425 79.211 62.3665 78.8021C62.4906 78.3932 62.7431 78.035 63.0868 77.7803C63.4305 77.5257 63.8472 77.3882 64.2752 77.388ZM15 70.8362H144.591C141.77 70.122 135.664 69.1566 136.671 65.4648C131.54 71.3916 119.167 69.623 116.044 66.7009C112.566 71.7354 92.3221 69.8214 90.9102 65.8992C86.5505 71.0066 73.0419 71.0066 68.6822 65.8992C67.2693 69.8214 47.0255 71.7354 43.5478 66.7003C40.4253 69.623 28.0525 71.3916 22.9214 65.4654C23.9283 69.1566 17.8224 70.1215 15 70.8362Z" fill="#364548"/>
<path fill-rule="evenodd" clip-rule="evenodd" d="M71.6855 96.6699C64.7862 93.4018 60.9998 88.9588 58.8928 84.1094C56.3298 84.8393 53.2496 85.3062 49.67 85.5066C48.3217 85.5819 46.9032 85.6206 45.4153 85.6206C43.6991 85.6206 41.8908 85.5697 39.9922 85.4695C46.3192 91.7818 54.1025 96.6414 68.5146 96.7299C69.5785 96.7299 70.6343 96.7096 71.6855 96.6699Z" fill="#BDD9D7"/>
<path fill-rule="evenodd" clip-rule="evenodd" d="M61.4572 88.5855C60.5028 87.292 59.5769 85.6663 58.8962 84.1094C56.3332 84.8403 53.2519 85.3072 49.6719 85.5082C52.1309 86.8403 55.6468 88.0748 61.4572 88.5855Z" fill="#D3ECEC"/>
</g>
<defs>
<clipPath id="clip0_462_200">
<rect width="160" height="160" rx="80" fill="white"/>
</clipPath>
</defs>
</svg>
