<svg width="160" height="160" viewBox="0 0 160 160" fill="none" xmlns="http://www.w3.org/2000/svg">
<rect width="160" height="160" fill="white"/>
<path d="M101.688 91.5264C102.32 86.2644 102.131 85.4924 106.05 86.3444L107.045 86.4324C110.059 86.5694 114.002 85.9474 116.317 84.8714C121.303 82.5584 124.259 78.6944 119.343 79.7094C108.128 82.0224 107.357 78.2264 107.357 78.2264C119.2 60.6554 124.151 38.3514 119.878 32.8914C108.224 17.9994 88.0499 25.0414 87.7119 25.2244L87.6039 25.2454C85.3879 24.7844 82.9089 24.5104 80.1229 24.4654C75.0479 24.3824 71.1969 25.7964 68.2759 28.0114C68.2759 28.0114 32.2869 13.1844 33.9609 46.6574C34.3169 53.7784 44.1679 100.539 55.9169 86.4154C60.2109 81.2514 64.3609 76.8844 64.3609 76.8844C66.4219 78.2534 68.8889 78.9514 71.4769 78.7004L71.6769 78.5304C71.6149 79.1714 71.6419 79.7984 71.7579 80.5404C68.7309 83.9234 69.6209 84.5174 63.5689 85.7624C57.4469 87.0244 61.0439 89.2704 63.3909 89.8574C66.2389 90.5704 72.8239 91.5794 77.2749 85.3484L77.0979 86.0594C78.2859 87.0094 78.2049 92.8864 78.3729 97.0854C78.5409 101.284 78.8229 105.202 79.6789 107.514C80.5349 109.824 81.5449 115.775 89.4979 114.071C96.1439 112.645 101.225 110.595 101.688 91.5264Z" fill="black"/>
<path d="M86.9083 118.219C83.3903 118.219 81.1003 116.859 79.7083 115.545C77.6083 113.564 76.7753 111.011 76.2783 109.486L76.0633 108.849C75.0613 106.144 74.7223 102.25 74.5213 97.2358C74.4916 96.452 74.4666 95.668 74.4463 94.8838C74.4293 94.2828 74.4083 93.5288 74.3783 92.7378C73.1109 93.3423 71.7657 93.7677 70.3813 94.0018C67.9013 94.4258 65.2353 94.2878 62.4553 93.5928C60.4943 93.1028 58.4563 92.0868 57.2953 90.5168C53.9103 93.4818 50.6813 93.0788 48.9223 92.4928C45.8193 91.4578 43.0423 88.5508 40.4313 83.6028C38.5723 80.0798 36.7733 75.4878 35.0843 69.9568C32.1443 60.3238 30.2763 50.1778 30.1103 46.8478C29.5883 36.4208 32.3943 28.9648 38.4503 24.6878C48.0053 17.9388 62.4803 21.9068 67.7573 23.7088C71.3023 21.5718 75.4733 20.5308 80.1873 20.6068C82.7193 20.6478 85.1293 20.8708 87.3683 21.2688C89.7033 20.5348 94.3173 19.4808 99.5983 19.5458C109.328 19.6618 117.391 23.4538 122.914 30.5118C126.855 35.5478 124.907 46.1218 123.394 51.9778C121.267 60.2128 117.538 68.9738 112.958 76.5998C114.202 76.6088 116.003 76.4588 118.565 75.9308C123.619 74.8868 125.096 77.5968 125.497 78.8098C127.104 83.6768 120.119 87.3538 117.94 88.3648C115.148 89.6618 110.597 90.4508 106.869 90.2798L106.706 90.2688L105.727 90.1828L105.63 90.9988L105.537 91.7978C105.287 101.462 103.906 107.582 101.065 111.627C98.0883 115.866 93.9493 117.055 90.3043 117.836C89.189 118.083 88.0506 118.212 86.9083 118.219ZM79.5063 83.0448C81.7773 84.8618 81.9763 88.2808 82.1533 94.6708C82.1753 95.4678 82.1963 96.2228 82.2243 96.9278C82.3103 99.0618 82.5113 104.06 83.2933 106.172C83.4043 106.47 83.5033 106.774 83.6073 107.094C84.4793 109.766 84.9173 111.105 88.6883 110.297C91.8553 109.619 93.4823 109.01 94.7563 107.196C96.6083 104.558 97.6443 99.2548 97.8343 91.4288L101.686 91.5228L97.8603 91.0638L97.9723 90.1088C98.3393 86.9608 98.6033 84.6848 100.708 83.1808C102.396 81.9738 104.321 82.0908 105.854 82.3668C104.17 81.0958 103.704 79.6018 103.58 78.9898L103.259 77.4078L104.161 76.0678C109.361 68.3518 113.65 58.8688 115.928 50.0498C118.268 40.9878 117.554 36.1748 116.841 35.2648C107.395 23.1938 91.0123 28.1768 89.3023 28.7438L89.0123 28.8998L87.5623 29.1708L86.8193 29.0168C84.7723 28.5918 82.4983 28.3568 80.0593 28.3168C76.2283 28.2528 73.1383 29.1578 70.6043 31.0808L68.8463 32.4138L66.8053 31.5728C62.4473 29.7908 49.6433 26.2078 42.8873 30.9928C39.1373 33.6488 37.4293 38.8538 37.8093 46.4628C37.9343 48.9748 39.6423 58.4838 42.4563 67.7078C46.3473 80.4538 49.8833 84.6868 51.3593 85.1798C51.6163 85.2668 52.2853 84.7468 52.9503 83.9488C57.2763 78.7458 61.3903 74.4088 61.5633 74.2258L63.7943 71.8788L66.4913 73.6708C67.5783 74.3938 68.7773 74.8028 70.0093 74.8798L76.4423 69.3938L75.5103 78.9038C75.4893 79.1178 75.4793 79.4078 75.5633 79.9478L75.8433 81.7508L74.6303 83.1088L74.4903 83.2658L78.0243 84.8978L79.5063 83.0448Z" fill="black"/>
<path d="M119.347 79.7099C108.131 82.0229 107.36 78.2259 107.36 78.2259C119.202 60.6549 124.152 38.3499 119.88 32.8909C108.225 17.9989 88.0509 25.0419 87.7139 25.2249L87.6049 25.2439C85.3889 24.7849 82.9099 24.5109 80.1229 24.4659C75.0479 24.3829 71.1979 25.7959 68.2769 28.0109C68.2769 28.0109 32.2869 13.1849 33.9609 46.6579C34.3169 53.7789 44.1679 100.54 55.9169 86.4159C60.2109 81.2519 64.3599 76.8849 64.3599 76.8849C66.4209 78.2539 68.8879 78.9519 71.4749 78.7009L71.6759 78.5309C71.6139 79.1719 71.6419 79.7989 71.7559 80.5409C68.7299 83.9239 69.6179 84.5179 63.5679 85.7629C57.4449 87.0249 61.0419 89.2709 63.3909 89.8579C66.2379 90.5709 72.8239 91.5799 77.2739 85.3489L77.0959 86.0599C78.2819 87.0099 79.1149 92.2389 78.9749 96.9789C78.8349 101.719 78.7419 104.973 79.6769 107.515C80.6119 110.056 81.5429 115.776 89.4969 114.072C96.1429 112.647 99.5869 108.956 100.067 102.8C100.407 98.4229 101.176 99.0699 101.225 95.1559L101.843 93.3029C102.554 87.3689 101.956 85.4549 106.051 86.3459L107.046 86.4329C110.06 86.5709 114.004 85.9479 116.319 84.8719C121.305 82.5579 124.262 78.6949 119.347 79.7099Z" fill="#336791"/>
<path d="M87.3101 115.844C80.6791 115.845 78.5791 110.594 77.7191 108.447C76.4621 105.301 76.1901 93.0889 76.4701 83.0739C76.4887 82.7396 76.6371 82.4257 76.8836 82.199C77.1301 81.9723 77.4553 81.8508 77.7901 81.8601C78.1248 81.8695 78.4427 82.0091 78.6761 82.2492C78.9096 82.4893 79.0401 82.8111 79.0401 83.1459C78.7171 94.6969 79.1761 105.164 80.1061 107.492C81.5591 111.124 83.7621 114.301 89.9931 112.967C95.9081 111.698 98.123 109.455 99.109 103.737C99.867 99.3479 101.363 86.8629 101.547 84.3989C101.572 84.0591 101.732 83.7432 101.99 83.5208C102.248 83.2983 102.584 83.1876 102.924 83.2129C103.264 83.2383 103.58 83.3976 103.802 83.6558C104.025 83.9141 104.135 84.2501 104.11 84.5899C103.918 87.1539 102.428 99.6159 101.641 104.174C100.476 110.929 97.4651 113.993 90.5311 115.48C89.4731 115.714 88.3935 115.836 87.3101 115.844ZM51.3591 90.1989C50.7796 90.1983 50.2041 90.1034 49.6551 89.9179C45.3481 88.4809 41.2461 81.4669 37.4621 69.0689C34.5821 59.6309 32.7571 49.7809 32.5971 46.5799C32.1221 37.0899 34.5671 30.3749 39.8621 26.6229C50.3381 19.1999 67.9621 26.2689 68.7071 26.5729C69.0197 26.7038 69.268 26.9528 69.3979 27.2659C69.5277 27.5789 69.5287 27.9306 69.4005 28.2443C69.2723 28.5581 69.0254 28.8085 68.7135 28.941C68.4015 29.0735 68.0499 29.0775 67.7351 28.9519V28.9529C67.5651 28.8829 50.6651 22.1129 41.3431 28.7239C36.8151 31.9349 34.7361 37.8989 35.1631 46.4529C35.2981 49.1489 37.0031 58.7639 39.9201 68.3199C43.2981 79.3869 47.1431 86.3719 50.4681 87.4799C50.9891 87.6549 52.5771 88.1839 54.8491 85.4539C59.1211 80.3139 63.0461 76.2119 63.0851 76.1709C63.324 75.9394 63.6435 75.8095 63.9763 75.8085C64.3091 75.8076 64.6293 75.9357 64.8696 76.1659C65.1099 76.3961 65.2516 76.7105 65.2649 77.043C65.2782 77.3755 65.1622 77.7002 64.9411 77.9489C64.9021 77.9889 61.0371 82.0299 56.8251 87.0969C54.8301 89.4949 52.9171 90.1989 51.3591 90.1989ZM107.279 79.3699C107.046 79.3703 106.817 79.307 106.617 79.187C106.416 79.0669 106.253 78.8946 106.143 78.6885C106.034 78.4824 105.983 78.2504 105.995 78.0174C106.007 77.7844 106.083 77.5592 106.214 77.3659C118.185 59.6019 122.387 38.1389 118.788 33.5409C114.258 27.7529 107.861 24.7289 99.776 24.5559C93.789 24.4259 89.0301 25.9549 88.2531 26.2219L88.0581 26.3009C87.2761 26.5469 86.6761 26.1179 86.4501 25.6169C86.3213 25.3299 86.3018 25.0057 86.3954 24.7053C86.489 24.4049 86.6891 24.1491 86.9581 23.9859L87.3041 23.8439L87.2871 23.8489L87.3051 23.8429C88.6261 23.3599 93.457 21.9099 99.442 21.9789C108.389 22.0729 115.779 25.5239 120.813 31.9559C123.195 34.9999 123.2 42.0129 120.828 51.1959C118.41 60.5579 113.86 70.6209 108.346 78.8029C108.229 78.9779 108.07 79.1211 107.884 79.22C107.697 79.3189 107.49 79.3704 107.279 79.3699ZM107.89 87.5929C105.846 87.5929 104.014 87.3059 102.917 86.6479C101.789 85.9729 101.574 85.0539 101.546 84.5669C101.238 79.1629 104.22 78.2219 105.741 77.7929C105.529 77.4729 105.227 77.0959 104.916 76.7069C104.029 75.5989 102.815 74.0809 101.879 71.8109C101.733 71.4569 101.273 70.6319 100.741 69.6779C97.8581 64.5089 91.8601 53.7519 95.7131 48.2429C97.4971 45.6939 101.047 44.6909 106.279 45.2509C104.74 40.5619 97.4101 25.8929 80.0201 25.6079C74.7891 25.5199 70.4991 27.1289 67.2761 30.3829C60.0591 37.6719 60.3211 50.8599 60.3241 50.9909C60.3285 51.1596 60.2996 51.3275 60.2391 51.4851C60.1786 51.6426 60.0877 51.7866 59.9715 51.909C59.8554 52.0314 59.7162 52.1297 59.5621 52.1983C59.4079 52.267 59.2417 52.3045 59.0731 52.3089C58.9044 52.3133 58.7365 52.2845 58.5789 52.224C58.4214 52.1635 58.2774 52.0726 58.155 51.9564C58.0326 51.8402 57.9343 51.7011 57.8656 51.547C57.797 51.3928 57.7595 51.2266 57.7551 51.0579C57.7391 50.4729 57.4691 36.6339 65.4501 28.5739C69.1851 24.8019 74.1011 22.9399 80.0621 23.0369C91.1901 23.2199 98.351 28.8759 102.4 33.5899C106.812 38.7259 108.976 44.3919 109.154 46.2819C109.287 47.6879 108.278 47.9699 108.074 48.0109L107.611 48.0219C102.476 47.1999 99.1821 47.7699 97.8201 49.7169C94.8891 53.9049 100.563 64.0799 102.986 68.4259C103.605 69.5339 104.051 70.3349 104.255 70.8299C105.051 72.7599 106.089 74.0569 106.923 75.0989C107.656 76.0159 108.292 76.8099 108.52 77.7439C108.625 77.9289 110.123 80.1429 119.008 78.3089C121.235 77.8499 122.57 78.2429 122.978 79.4769C123.781 81.9059 119.276 84.7379 116.782 85.8969C114.544 86.9359 110.977 87.5929 107.89 87.5929ZM104.109 84.3549C104.39 84.6399 105.8 85.1299 108.721 85.0049C111.317 84.8929 114.056 84.3279 115.7 83.5659C117.802 82.5899 119.204 81.4989 119.931 80.7539L119.527 80.8279C113.846 82.0009 109.828 81.8449 107.585 80.3629C107.434 80.2635 107.289 80.1557 107.15 80.0399C106.907 80.1359 106.682 80.1989 106.522 80.2439C105.249 80.6009 103.933 80.9699 104.109 84.3549ZM67.4121 91.5339C66.0011 91.5339 64.5161 91.3429 62.9991 90.9619C61.4281 90.5689 58.7781 89.3859 58.8191 87.4429C58.8641 85.2619 62.0351 84.6079 63.2301 84.3619C67.5421 83.4739 67.8231 83.1179 69.1711 81.4069C69.5641 80.9079 70.0531 80.2869 70.7191 79.5419C71.7091 78.4349 72.7911 77.8729 73.9351 77.8729C74.7311 77.8729 75.3851 78.1439 75.8161 78.3219C77.1921 78.8919 78.3401 80.2699 78.8121 81.9199C79.2381 83.4079 79.0351 84.8399 78.2401 85.9519C75.6321 89.6049 71.8881 91.5339 67.4121 91.5339ZM61.5951 87.5539C61.9831 87.8529 62.7591 88.2529 63.6221 88.4699C64.9361 88.7979 66.2101 88.9649 67.4121 88.9649C71.0741 88.9649 74.0131 87.4479 76.1491 84.4589C76.5941 83.8349 76.4611 83.0439 76.3421 82.6269C76.0921 81.7549 75.4721 80.9619 74.8331 80.6959C74.4861 80.5519 74.1991 80.4419 73.9351 80.4419C73.7931 80.4419 73.3621 80.4419 72.6351 81.2549C72.0211 81.9409 71.5801 82.5009 71.1891 82.9959C69.5111 85.1269 68.7421 85.8499 63.7481 86.8789C62.5301 87.1309 61.9051 87.3849 61.5951 87.5539ZM71.4771 81.6259C71.1703 81.6255 70.8738 81.5154 70.6411 81.3155C70.4084 81.1156 70.2548 80.8391 70.2081 80.5359C70.1752 80.3226 70.1538 80.1076 70.1441 79.8919C66.8701 79.8299 63.7121 78.4259 61.3151 75.9239C58.2841 72.7609 56.9041 68.3789 57.5301 63.9019C58.2101 59.0399 57.9561 54.7479 57.8191 52.4419C57.7848 51.9676 57.7638 51.4924 57.7561 51.0169C57.7581 50.6109 57.7661 49.5319 61.3711 47.7049C62.6531 47.0549 65.2241 45.9209 68.0321 45.6299C72.6861 45.1499 75.7531 47.2219 76.6711 51.4659C79.1491 62.9259 76.8671 67.9949 75.2011 71.6959C74.8901 72.3839 74.5971 73.0359 74.3631 73.6659L74.1561 74.2229C73.2761 76.5829 72.5151 78.6219 72.7491 80.1459C72.8005 80.4828 72.7162 80.8264 72.5147 81.1012C72.3131 81.376 72.0108 81.5597 71.6741 81.6119L71.4771 81.6259ZM60.3341 51.3719L60.3851 52.2899C60.5271 54.6849 60.7911 59.1429 60.0751 64.2589C59.5591 67.9509 60.6871 71.5559 63.1701 74.1469C65.1321 76.1949 67.7161 77.3249 70.3711 77.3249H70.4261C70.7241 76.0719 71.2171 74.7499 71.7481 73.3249L71.9541 72.7719C72.2191 72.0599 72.5291 71.3709 72.8571 70.6419C74.4611 67.0779 76.4571 62.6419 74.1581 52.0089C73.7021 49.9039 72.5981 48.6849 70.7831 48.2829C67.0551 47.4589 61.5001 50.2629 60.3341 51.3719ZM68.0901 50.8269C68.0261 51.2809 68.9231 52.4939 70.0911 52.6559C71.2581 52.8189 72.2571 51.8709 72.3201 51.4169C72.3831 50.9619 71.4871 50.4619 70.3181 50.2989C69.1511 50.1359 68.1521 50.3719 68.0901 50.8269ZM70.3601 53.1039L70.0321 53.0809C69.3071 52.9799 68.5741 52.5229 68.0731 51.8579C67.8971 51.6249 67.6091 51.1709 67.6661 50.7669C67.7481 50.1739 68.4701 49.8199 69.5991 49.8199C69.8521 49.8199 70.1141 49.8389 70.3791 49.8749C70.9951 49.9609 71.5681 50.1389 71.9911 50.3749C72.7241 50.7849 72.7781 51.2409 72.7451 51.4779C72.6541 52.1309 71.6121 53.1039 70.3601 53.1039ZM68.5161 50.9029C68.5531 51.1829 69.2461 52.1079 70.1501 52.2329L70.3591 52.2479C71.1931 52.2479 71.8171 51.5909 71.8901 51.3759C71.8131 51.2299 71.2771 50.8649 70.2591 50.7249C70.0401 50.6935 69.8192 50.6774 69.5981 50.6769C68.9461 50.6759 68.5971 50.8229 68.5161 50.9029ZM103.637 49.8999C103.7 50.3549 102.805 51.5679 101.636 51.7299C100.468 51.8919 99.4691 50.9449 99.4051 50.4899C99.3431 50.0359 100.239 49.5349 101.407 49.3729C102.575 49.2089 103.573 49.4469 103.637 49.8999ZM101.367 51.9619C100.242 51.9619 99.273 51.0869 99.193 50.5199C99.101 49.8389 100.222 49.3209 101.378 49.1609C101.632 49.1249 101.884 49.1069 102.127 49.1069C103.124 49.1069 103.784 49.3999 103.85 49.8709C103.893 50.1769 103.659 50.6479 103.255 51.0719C102.989 51.3519 102.429 51.8369 101.667 51.9419L101.367 51.9619ZM102.126 49.5349C101.903 49.5349 101.671 49.5519 101.436 49.5839C100.274 49.7449 99.5831 50.2119 99.6161 50.4619C99.6551 50.7359 100.396 51.5339 101.366 51.5339L101.605 51.5169C102.239 51.4279 102.715 51.0149 102.942 50.7759C103.298 50.4009 103.44 50.0489 103.423 49.9279C103.402 49.7709 102.974 49.5349 102.126 49.5349ZM105.32 75.9879C105.087 75.9878 104.859 75.9245 104.659 75.8047C104.46 75.6849 104.297 75.5131 104.187 75.3078C104.077 75.1024 104.026 74.8712 104.037 74.6387C104.049 74.4063 104.124 74.1813 104.253 73.9879C106.989 69.9009 106.488 65.7319 106.004 61.7019C105.797 59.9839 105.584 58.2089 105.64 56.5039C105.696 54.7509 105.918 53.3049 106.134 51.9049C106.389 50.2479 106.63 48.6809 106.53 46.8229C106.523 46.489 106.646 46.1653 106.873 45.9204C107.1 45.6754 107.413 45.5284 107.747 45.5105C108.08 45.4926 108.408 45.6051 108.66 45.8243C108.912 46.0435 109.069 46.3522 109.097 46.6849C109.211 48.8089 108.938 50.5809 108.674 52.2959C108.47 53.6189 108.259 54.9869 108.208 56.5859C108.159 58.0949 108.352 59.6979 108.556 61.3939C109.072 65.6809 109.655 70.5399 106.389 75.4169C106.141 75.7869 105.734 75.9879 105.32 75.9879Z" fill="white"/>
<path d="M18.5352 118.635C19.9709 118.402 21.4236 118.289 22.8782 118.297C25.1132 118.297 26.7522 118.817 27.7922 119.753C28.7542 120.585 29.3262 121.859 29.3262 123.42C29.3262 125.006 28.8572 126.254 27.9732 127.164C26.7772 128.438 24.8272 129.088 22.6172 129.088C21.9412 129.088 21.3172 129.062 20.7982 128.932V135.953H18.5352V118.635ZM20.7982 127.085C21.2922 127.215 21.9162 127.267 22.6702 127.267C25.3992 127.267 27.0642 125.941 27.0642 123.523C27.0642 121.209 25.4262 120.091 22.9302 120.091C21.9422 120.091 21.1882 120.169 20.7982 120.273V127.085ZM43.0282 129.555C43.0282 134.209 39.8032 136.238 36.7612 136.238C33.3552 136.238 30.7292 133.742 30.7292 129.763C30.7292 125.551 33.4852 123.081 36.9692 123.081C40.5842 123.08 43.0282 125.707 43.0282 129.555ZM33.0442 129.685C33.0442 132.441 34.6302 134.521 36.8662 134.521C39.0502 134.521 40.6872 132.467 40.6872 129.633C40.6872 127.501 39.6222 124.797 36.9172 124.797C34.2122 124.797 33.0442 127.293 33.0442 129.685ZM45.6012 133.611C46.2772 134.053 47.4732 134.521 48.6172 134.521C50.2812 134.521 51.0612 133.689 51.0612 132.649C51.0612 131.557 50.4122 130.959 48.7212 130.335C46.4592 129.529 45.3932 128.281 45.3932 126.773C45.3932 124.745 47.0312 123.081 49.7352 123.081C51.0092 123.081 52.1282 123.445 52.8302 123.861L52.2582 125.525C51.4843 125.048 50.5931 124.796 49.6842 124.797C48.3322 124.797 47.5782 125.577 47.5782 126.513C47.5782 127.553 48.3332 128.021 49.9712 128.645C52.1552 129.477 53.2732 130.569 53.2732 132.441C53.2732 134.651 51.5572 136.211 48.5672 136.211C47.1892 136.211 45.9152 135.873 45.0312 135.353L45.6012 133.611ZM58.9662 119.752V123.366H62.2412V125.108H58.9662V131.894C58.9662 133.454 59.4072 134.338 60.6822 134.338C61.1291 134.345 61.5749 134.292 62.0082 134.182L62.1122 135.898C61.6712 136.08 60.9682 136.21 60.0852 136.21C59.0192 136.21 58.1602 135.872 57.6142 135.248C56.9652 134.572 56.7302 133.454 56.7302 131.972V125.108H54.7802V123.366H56.7302V120.35L58.9662 119.752ZM75.5022 123.367C75.4492 124.277 75.3982 125.291 75.3982 126.825V134.131C75.3982 137.017 74.8262 138.785 73.6042 139.878C72.3822 141.022 70.6142 141.386 69.0282 141.386C67.5202 141.386 65.8562 141.022 64.8412 140.346L65.4132 138.604C66.2452 139.124 67.5452 139.592 69.1052 139.592C71.4452 139.592 73.1612 138.37 73.1612 135.198V133.794H73.1092C72.4072 134.964 71.0552 135.9 69.1052 135.9C65.9852 135.9 63.7492 133.248 63.7492 129.763C63.7492 125.499 66.5312 123.081 69.4172 123.081C71.6022 123.081 72.7982 124.225 73.3442 125.265H73.3962L73.5002 123.367H75.5022ZM73.1362 128.333C73.1362 127.943 73.1102 127.605 73.0062 127.293C72.5902 125.967 71.4722 124.875 69.8082 124.875C67.6232 124.875 66.0642 126.721 66.0642 129.633C66.0642 132.103 67.3122 134.157 69.7822 134.157C71.1862 134.157 72.4602 133.273 72.9542 131.817C73.0842 131.427 73.1372 130.985 73.1372 130.595L73.1362 128.333ZM79.0372 127.293C79.0372 125.811 79.0112 124.537 78.9332 123.367H80.9362L81.0132 125.837H81.1172C81.6892 124.147 83.0672 123.081 84.6012 123.081C84.8612 123.081 85.0422 123.107 85.2502 123.159V125.317C84.9943 125.262 84.733 125.235 84.4712 125.239C82.8592 125.239 81.7142 126.461 81.4032 128.177C81.339 128.529 81.3042 128.886 81.2992 129.243V135.951H79.0372V127.293ZM88.5542 130.075C88.6062 133.169 90.5812 134.443 92.8692 134.443C94.5082 134.443 95.4952 134.157 96.3532 133.793L96.7432 135.431C95.9372 135.795 94.5592 136.211 92.5572 136.211C88.6832 136.211 86.3692 133.663 86.3692 129.867C86.3692 126.071 88.6052 123.08 92.2712 123.08C96.3792 123.08 97.4712 126.694 97.4712 129.008C97.4712 129.476 97.4192 129.84 97.3932 130.074L88.5542 130.075ZM95.2622 128.437C95.2872 126.981 94.6632 124.719 92.0902 124.719C89.7762 124.719 88.7622 126.851 88.5792 128.437H95.2622Z" fill="black"/>
<path d="M100.071 133.195C101.297 133.931 102.697 134.326 104.127 134.339C106.441 134.339 107.793 133.117 107.793 131.349C107.793 129.711 106.857 128.775 104.491 127.865C101.631 126.851 99.8631 125.369 99.8631 122.899C99.8631 120.169 102.125 118.141 105.531 118.141C107.325 118.141 108.625 118.557 109.405 118.999L108.781 120.845C107.758 120.295 106.614 120.009 105.453 120.013C103.061 120.013 102.151 121.443 102.151 122.639C102.151 124.277 103.216 125.083 105.635 126.019C108.599 127.164 110.107 128.593 110.107 131.167C110.107 133.871 108.105 136.211 103.971 136.211C102.281 136.211 100.435 135.717 99.498 135.093L100.071 133.195ZM127.657 138.525C125.397 137.931 123.159 137.255 120.949 136.497C120.585 136.367 120.221 136.237 119.883 136.237C115.723 136.081 112.161 133.013 112.161 127.371C112.161 121.755 115.593 118.141 120.325 118.141C125.083 118.141 128.178 121.833 128.178 127.007C128.178 131.505 126.098 134.391 123.186 135.405V135.509C124.928 135.951 126.826 136.367 128.308 136.627L127.657 138.525ZM125.785 127.111C125.785 123.601 123.966 119.986 120.247 119.986C116.425 119.986 114.553 123.522 114.579 127.319C114.553 131.037 116.607 134.391 120.143 134.391C123.758 134.391 125.785 131.115 125.785 127.111ZM131.114 118.427H133.377V134.053H140.865V135.951H131.114V118.427Z" fill="#336791"/>
</svg>
