<svg width="300" height="300" viewBox="0 0 300 300" fill="none" xmlns="http://www.w3.org/2000/svg">
<rect width="300" height="300" fill="#242938"/>
<path d="M230.64 131.754H172.213C170.804 131.754 169.454 131.195 168.458 130.199C167.462 129.204 166.902 127.854 166.902 126.446V65.5848C166.902 61.0778 163.246 57.4219 158.739 57.4219H137.882C133.371 57.4219 129.717 61.0778 129.717 65.5848V126.079C129.717 129.217 127.179 131.768 124.038 131.781L104.891 131.872C101.725 131.89 99.1519 129.321 99.158 126.159L99.2768 65.5985C99.2871 61.0847 95.6293 57.4219 91.1133 57.4219H70.2736C65.763 57.4219 62.1094 61.0778 62.1094 65.5848V236.006C62.1094 240.009 65.3544 243.253 69.357 243.253H230.64C234.646 243.253 237.891 240.009 237.891 236.006V139.002C237.891 134.998 234.646 131.754 230.64 131.754ZM203.241 195.741C203.241 200.987 198.986 205.242 193.736 205.242H177.253C172.003 205.242 167.747 200.987 167.747 195.741V179.266C167.747 174.019 172.003 169.765 177.253 169.765H193.736C198.986 169.765 203.241 174.019 203.241 179.266V195.741Z" fill="#FF6600"/>
</svg>
