<svg width="160" height="160" viewBox="0 0 160 160" fill="none" xmlns="http://www.w3.org/2000/svg">
<g clip-path="url(#clip0_463_299)">
<path d="M160 0H0V160H160V0Z" fill="#242938"/>
<path d="M123.008 70.2688H91.8469C91.0955 70.2688 90.3754 69.9707 89.8442 69.4395C89.313 68.9088 89.0144 68.1888 89.0144 67.4378V34.9785C89.0144 32.5748 87.0645 30.625 84.6608 30.625H73.5371C71.1312 30.625 69.1824 32.5748 69.1824 34.9785V67.2421C69.1824 68.9157 67.8288 70.2763 66.1536 70.2832L55.9419 70.3317C54.2533 70.3413 52.881 68.9712 52.8843 67.2848L52.9476 34.9859C52.9531 32.5785 51.0023 30.625 48.5937 30.625H37.4792C35.0736 30.625 33.125 32.5748 33.125 34.9785V125.87C33.125 128.005 34.8557 129.735 36.9904 129.735H123.008C125.145 129.735 126.875 128.005 126.875 125.87V74.1344C126.875 71.9989 125.145 70.2688 123.008 70.2688ZM108.395 104.395C108.395 107.193 106.126 109.462 103.326 109.462H94.5349C91.7349 109.462 89.4651 107.193 89.4651 104.395V95.6085C89.4651 92.8101 91.7349 90.5413 94.5349 90.5413H103.326C106.126 90.5413 108.395 92.8101 108.395 95.6085V104.395Z" fill="#FF6600"/>
</g>
<defs>
<clipPath id="clip0_463_299">
<rect width="160" height="160" rx="80" fill="white"/>
</clipPath>
</defs>
</svg>
